<svg xmlns="http://www.w3.org/2000/svg" viewBox="0 0 1200 800" width="1200" height="800">
  <defs>
    <!-- Gradients -->
    <linearGradient id="bgGrad" x1="0%" y1="0%" x2="100%" y2="100%">
      <stop offset="0%" style="stop-color:#1a1a2e"/>
      <stop offset="100%" style="stop-color:#16213e"/>
    </linearGradient>
    <linearGradient id="boardGrad" x1="0%" y1="0%" x2="0%" y2="100%">
      <stop offset="0%" style="stop-color:#2d2d44"/>
      <stop offset="100%" style="stop-color:#1f1f35"/>
    </linearGradient>
    <linearGradient id="megaGrad" x1="0%" y1="0%" x2="0%" y2="100%">
      <stop offset="0%" style="stop-color:#00688b"/>
      <stop offset="100%" style="stop-color:#004d63"/>
    </linearGradient>
    <linearGradient id="espGrad" x1="0%" y1="0%" x2="0%" y2="100%">
      <stop offset="0%" style="stop-color:#4a148c"/>
      <stop offset="100%" style="stop-color:#6a1b9a"/>
    </linearGradient>
    <linearGradient id="greenGrad" x1="0%" y1="0%" x2="0%" y2="100%">
      <stop offset="0%" style="stop-color:#4caf50"/>
      <stop offset="100%" style="stop-color:#2e7d32"/>
    </linearGradient>
    <linearGradient id="redGrad" x1="0%" y1="0%" x2="0%" y2="100%">
      <stop offset="0%" style="stop-color:#f44336"/>
      <stop offset="100%" style="stop-color:#c62828"/>
    </linearGradient>
    <linearGradient id="blueGrad" x1="0%" y1="0%" x2="0%" y2="100%">
      <stop offset="0%" style="stop-color:#2196f3"/>
      <stop offset="100%" style="stop-color:#1565c0"/>
    </linearGradient>
    <linearGradient id="orangeGrad" x1="0%" y1="0%" x2="0%" y2="100%">
      <stop offset="0%" style="stop-color:#ff9800"/>
      <stop offset="100%" style="stop-color:#f57c00"/>
    </linearGradient>
    <linearGradient id="purpleGrad" x1="0%" y1="0%" x2="0%" y2="100%">
      <stop offset="0%" style="stop-color:#9c27b0"/>
      <stop offset="100%" style="stop-color:#6a1b9a"/>
    </linearGradient>
    <linearGradient id="yellowGrad" x1="0%" y1="0%" x2="0%" y2="100%">
      <stop offset="0%" style="stop-color:#ffeb3b"/>
      <stop offset="100%" style="stop-color:#fbc02d"/>
    </linearGradient>

    <!-- Glow Filter -->
    <filter id="glow" x="-50%" y="-50%" width="200%" height="200%">
      <feGaussianBlur stdDeviation="3" result="coloredBlur"/>
      <feMerge>
        <feMergeNode in="coloredBlur"/>
        <feMergeNode in="SourceGraphic"/>
      </feMerge>
    </filter>

    <!-- Shadow Filter -->
    <filter id="shadow" x="-20%" y="-20%" width="140%" height="140%">
      <feDropShadow dx="3" dy="3" stdDeviation="4" flood-opacity="0.5"/>
    </filter>
  </defs>

  <!-- Background -->
  <rect width="1200" height="800" fill="url(#bgGrad)"/>

  <!-- Title -->
  <text x="600" y="40" text-anchor="middle" fill="#00d4ff" font-family="Cairo, Arial" font-size="28" font-weight="bold">
    نظام الكراج الذكي - الرسم التخطيطي للدارة الكهربائية
  </text>
  <text x="600" y="65" text-anchor="middle" fill="#7c3aed" font-family="Cairo, Arial" font-size="16">
    Smart Garage IoT System - Circuit Schematic
  </text>

  <!-- ========================================== -->
  <!-- ARDUINO MEGA 2560 -->
  <!-- ========================================== -->
  <g filter="url(#shadow)">
    <rect x="50" y="100" width="280" height="380" rx="8" fill="url(#megaGrad)" stroke="#00d4ff" stroke-width="2"/>
    <text x="190" y="125" text-anchor="middle" fill="white" font-family="Arial" font-size="14" font-weight="bold">Arduino Mega 2560</text>
  </g>

  <!-- Mega Pins Labels - Left Side -->
  <g fill="white" font-family="Consolas" font-size="9">
    <!-- Digital Pins Left -->
    <text x="55" y="145">D22</text><rect x="55" y="148" width="25" height="8" fill="#333" stroke="#666"/>
    <text x="55" y="165">D23</text><rect x="55" y="168" width="25" height="8" fill="#333" stroke="#666"/>
    <text x="55" y="185">D24</text><rect x="55" y="188" width="25" height="8" fill="#333" stroke="#666"/>
    <text x="55" y="205">D25</text><rect x="55" y="208" width="25" height="8" fill="#333" stroke="#666"/>
    <text x="55" y="225">D26</text><rect x="55" y="228" width="25" height="8" fill="#333" stroke="#666"/>
    <text x="55" y="245">D27</text><rect x="55" y="248" width="25" height="8" fill="#333" stroke="#666"/>
    <text x="55" y="265">D28</text><rect x="55" y="268" width="25" height="8" fill="#333" stroke="#666"/>

    <!-- Servo Pins -->
    <text x="55" y="290" fill="#ff9800">D9</text><rect x="55" y="293" width="25" height="8" fill="#ff9800" stroke="#ff9800"/>
    <text x="55" y="310" fill="#ff9800">D10</text><rect x="55" y="313" width="25" height="8" fill="#ff9800" stroke="#ff9800"/>

    <!-- More Digital Pins -->
    <text x="55" y="335">D49</text><rect x="55" y="338" width="25" height="8" fill="#333" stroke="#666"/>
    <text x="55" y="355">D50</text><rect x="55" y="358" width="25" height="8" fill="#333" stroke="#666"/>
    <text x="55" y="375">D51</text><rect x="55" y="378" width="25" height="8" fill="#333" stroke="#666"/>
    <text x="55" y="395">D52</text><rect x="55" y="398" width="25" height="8" fill="#333" stroke="#666"/>
    <text x="55" y="415" fill="#ff9800">D53</text><rect x="55" y="418" width="25" height="8" fill="#ff9800" stroke="#ff9800"/>

    <!-- Analog Pins -->
    <text x="55" y="440" fill="#4caf50">A0</text><rect x="55" y="443" width="25" height="8" fill="#4caf50" stroke="#4caf50"/>
  </g>

  <!-- Mega Pins Labels - Right Side -->
  <g fill="white" font-family="Consolas" font-size="9">
    <text x="280" y="145">3.3V</text><rect x="280" y="148" width="25" height="8" fill="#ffeb3b"/>
    <text x="280" y="165">5V</text><rect x="280" y="168" width="25" height="8" fill="#f44336"/>
    <text x="280" y="185">GND</text><rect x="280" y="188" width="25" height="8" fill="#333" stroke="#00d4ff"/>
    <text x="280" y="205">GND</text><rect x="280" y="208" width="25" height="8" fill="#333" stroke="#00d4ff"/>
    <text x="280" y="225">SDA</text><rect x="280" y="228" width="25" height="8" fill="#9c27b0"/>
    <text x="280" y="245">SCL</text><rect x="280" y="248" width="25" height="8" fill="#9c27b0"/>
    <text x="280" y="265">TX1</text><rect x="280" y="268" width="25" height="8" fill="#2196f3"/>
    <text x="280" y="285">RX1</text><rect x="280" y="288" width="25" height="8" fill="#2196f3"/>
  </g>

  <!-- ========================================== -->
  <!-- ESP8266 MODULE -->
  <!-- ========================================== -->
  <g filter="url(#shadow)">
    <rect x="360" y="100" width="180" height="120" rx="8" fill="url(#espGrad)" stroke="#7c3aed" stroke-width="2"/>
    <text x="450" y="125" text-anchor="middle" fill="white" font-family="Arial" font-size="12" font-weight="bold">ESP8266 WiFi</text>
  </g>

  <!-- ESP8266 Pins -->
  <g fill="white" font-family="Consolas" font-size="8">
    <text x="365" y="145">RX</text><rect x="365" y="148" width="20" height="6" fill="#333"/>
    <text x="390" y="145">TX</text><rect x="390" y="148" width="20" height="6" fill="#333"/>
    <text x="365" y="165">CH_PD</text><rect x="365" y="168" width="20" height="6" fill="#f44336"/>
    <text x="415" y="165">GPIO0</text><rect x="415" y="168" width="20" height="6" fill="#333"/>

    <text x="485" y="145">VCC</text><rect x="485" y="148" width="25" height="6" fill="#ffeb3b"/>
    <text x="485" y="165">GND</text><rect x="485" y="168" width="25" height="6" fill="#333"/>
  </g>

  <!-- ESP-Mega Serial Connection -->
  <path d="M310 275 L360 195" stroke="#2196f3" stroke-width="2" fill="none"/>
  <path d="M310 285 L360 205" stroke="#2196f3" stroke-width="2" fill="none"/>
  <text x="330" y="240" fill="#2196f3" font-size="10">TX/RX</text>

  <!-- ========================================== -->
  <!-- SERVO MOTORS -->
  <!-- ========================================== -->

  <!-- Entry Gate Servo -->
  <g filter="url(#shadow)">
    <rect x="50" y="520" width="80" height="60" rx="5" fill="url(#orangeGrad)"/>
    <text x="90" y="545" text-anchor="middle" fill="white" font-size="10" font-weight="bold">SERVO</text>
    <text x="90" y="560" text-anchor="middle" fill="white" font-size="8">بوابة الدخول</text>
  </g>
  <line x1="90" y1="520" x2="90" y2="480" stroke="#ff9800" stroke-width="3"/>
  <circle cx="90" cy="485" r="8" fill="#ff9800"/>
  <text x="95" y="505" fill="#ff9800" font-size="8">D9</text>

  <!-- Exit Gate Servo -->
  <g filter="url(#shadow)">
    <rect x="160" y="520" width="80" height="60" rx="5" fill="url(#orangeGrad)"/>
    <text x="200" y="545" text-anchor="middle" fill="white" font-size="10" font-weight="bold">SERVO</text>
    <text x="200" y="560" text-anchor="middle" fill="white" font-size="8">بوابة الخروج</text>
  </g>
  <line x1="200" y1="520" x2="200" y2="480" stroke="#ff9800" stroke-width="3"/>
  <circle cx="200" cy="485" r="8" fill="#ff9800"/>
  <text x="205" y="505" fill="#ff9800" font-size="8">D10</text>

  <!-- Security Door Servo -->
  <g filter="url(#shadow)">
    <rect x="270" y="520" width="80" height="60" rx="5" fill="url(#orangeGrad)"/>
    <text x="310" y="545" text-anchor="middle" fill="white" font-size="10" font-weight="bold">SERVO</text>
    <text x="310" y="560" text-anchor="middle" fill="white" font-size="8">باب الأمان</text>
  </g>
  <line x1="310" y1="520" x2="310" y2="480" stroke="#ff9800" stroke-width="3"/>
  <circle cx="310" cy="485" r="8" fill="#ff9800"/>
  <text x="315" y="505" fill="#ff9800" font-size="8">D53</text>

  <!-- ========================================== -->
  <!-- SENSORS -->
  <!-- ========================================== -->

  <!-- IR Entry Sensor -->
  <g filter="url(#shadow)">
    <rect x="400" y="280" width="90" height="50" rx="5" fill="url(#greenGrad)"/>
    <text x="445" y="300" text-anchor="middle" fill="white" font-size="10" font-weight="bold">IR SENSOR</text>
    <text x="445" y="318" text-anchor="middle" fill="white" font-size="8">حساس الدخول</text>
  </g>
  <line x1="445" y1="280" x2="445" y2="260" stroke="#4caf50" stroke-width="2"/>
  <circle cx="445" cy="255" r="5" fill="#4caf50"/>
  <text x="450" y="270" fill="#4caf50" font-size="8">D27</text>

  <!-- IR Exit Sensor -->
  <g filter="url(#shadow)">
    <rect x="400" y="350" width="90" height="50" rx="5" fill="url(#greenGrad)"/>
    <text x="445" y="370" text-anchor="middle" fill="white" font-size="10" font-weight="bold">IR SENSOR</text>
    <text x="445" y="388" text-anchor="middle" fill="white" font-size="8">حساس الخروج</text>
  </g>
  <line x1="445" y1="350" x2="445" y2="330" stroke="#4caf50" stroke-width="2"/>
  <circle cx="445" cy="325" r="5" fill="#4caf50"/>
  <text x="450" y="340" fill="#4caf50" font-size="8">D28</text>

  <!-- DHT11 Sensor -->
  <g filter="url(#shadow)">
    <rect x="400" y="420" width="90" height="50" rx="5" fill="url(#blueGrad)"/>
    <text x="445" y="440" text-anchor="middle" fill="white" font-size="10" font-weight="bold">DHT11</text>
    <text x="445" y="458" text-anchor="middle" fill="white" font-size="8">الحرارة/الرطوبة</text>
  </g>
  <line x1="445" y1="420" x2="445" y2="390" stroke="#2196f3" stroke-width="2"/>
  <circle cx="445" cy="385" r="5" fill="#2196f3"/>
  <text x="450" y="405" fill="#2196f3" font-size="8">D26</text>

  <!-- MQ-2 Gas Sensor -->
  <g filter="url(#shadow)">
    <rect x="520" y="280" width="100" height="70" rx="5" fill="url(#yellowGrad)"/>
    <text x="570" y="305" text-anchor="middle" fill="#333" font-size="11" font-weight="bold">MQ-2</text>
    <text x="570" y="322" text-anchor="middle" fill="#333" font-size="9">Gas Sensor</text>
    <text x="570" y="340" text-anchor="middle" fill="#333" font-size="8">حساس الغاز</text>
  </g>
  <line x1="570" y1="280" x2="570" y2="260" stroke="#ffeb3b" stroke-width="2"/>
  <circle cx="570" cy="255" r="5" fill="#ffeb3b"/>
  <text x="575" y="270" fill="#ffeb3b" font-size="8">A0</text>

  <!-- Flame Sensor -->
  <g filter="url(#shadow)">
    <rect x="520" y="370" width="90" height="50" rx="5" fill="url(#redGrad)"/>
    <text x="565" y="390" text-anchor="middle" fill="white" font-size="10" font-weight="bold">FLAME</text>
    <text x="565" y="408" text-anchor="middle" fill="white" font-size="8">حساس اللهب</text>
  </g>
  <line x1="565" y1="370" x2="565" y2="350" stroke="#f44336" stroke-width="2"/>
  <circle cx="565" cy="345" r="5" fill="#f44336"/>
  <text x="570" y="360" fill="#f44336" font-size="8">D22</text>

  <!-- Vibration Sensor -->
  <g filter="url(#shadow)">
    <rect x="520" y="440" width="90" height="50" rx="5" fill="url(#purpleGrad)"/>
    <text x="565" y="460" text-anchor="middle" fill="white" font-size="10" font-weight="bold">VIBRATION</text>
    <text x="565" y="478" text-anchor="middle" fill="white" font-size="8">حساس الاهتزاز</text>
  </g>
  <line x1="565" y1="440" x2="565" y2="420" stroke="#9c27b0" stroke-width="2"/>
  <circle cx="565" cy="415" r="5" fill="#9c27b0"/>
  <text x="570" y="430" fill="#9c27b0" font-size="8">D23</text>

  <!-- ========================================== -->
  <!-- OUTPUT DEVICES -->
  <!-- ========================================== -->

  <!-- Buzzer -->
  <g filter="url(#shadow)">
    <circle cx="700" cy="310" r="25" fill="url(#redGrad)"/>
    <text x="700" y="315" text-anchor="middle" fill="white" font-size="12" font-weight="bold">🔊</text>
  </g>
  <text x="700" y="350" text-anchor="middle" fill="#f44336" font-size="10">جرس الإنذار</text>
  <line x1="700" y1="285" x2="700" y2="260" stroke="#f44336" stroke-width="2"/>
  <circle cx="700" cy="255" r="4" fill="#f44336"/>
  <text x="705" y="270" fill="#f44336" font-size="8">D24</text>

  <!-- Relay Module -->
  <g filter="url(#shadow)">
    <rect x="670" y="400" width="80" height="60" rx="5" fill="url(#blueGrad)"/>
    <text x="710" y="425" text-anchor="middle" fill="white" font-size="10" font-weight="bold">RELAY</text>
    <text x="710" y="445" text-anchor="middle" fill="white" font-size="8">وحدة الريلي</text>
  </g>
  <line x1="710" y1="400" x2="710" y2="385" stroke="#2196f3" stroke-width="2"/>
  <circle cx="710" cy="380" r="4" fill="#2196f3"/>
  <text x="715" y="395" fill="#2196f3" font-size="8">D25</text>

  <!-- Light Bulb (from Relay) -->
  <g filter="url(#glow)">
    <circle cx="780" cy="430" r="20" fill="#ffeb3b"/>
    <text x="780" y="435" text-anchor="middle" font-size="16">💡</text>
  </g>
  <text x="780" y="465" text-anchor="middle" fill="#ffeb3b" font-size="9">الإضاءة</text>

  <!-- RFID Module -->
  <g filter="url(#shadow)">
    <rect x="400" y="510" width="120" height="70" rx="5" fill="url(#purpleGrad)"/>
    <text x="460" y="535" text-anchor="middle" fill="white" font-size="11" font-weight="bold">MFRC522</text>
    <text x="460" y="555" text-anchor="middle" fill="white" font-size="9">RFID Reader</text>
    <text x="460" y="570" text-anchor="middle" fill="white" font-size="8">قارئ البطاقات</text>
  </g>
  <line x1="420" y1="510" x2="420" y2="490" stroke="#9c27b0" stroke-width="2"/>
  <circle cx="420" cy="485" r="4" fill="#9c27b0"/>
  <text x="425" y="500" fill="#9c27b0" font-size="7">D8/D49</text>

  <!-- ========================================== -->
  <!-- LCD DISPLAY -->
  <!-- ========================================== -->
  <g filter="url(#shadow)">
    <rect x="550" y="510" width="140" height="60" rx="5" fill="#1a1a1a" stroke="#00d4ff"/>
    <rect x="560" y="520" width="120" height="35" rx="3" fill="#0a2a0a"/>
    <text x="620" y="542" text-anchor="middle" fill="#00ff00" font-family="monospace" font-size="10">Smart Garage</text>
  </g>
  <text x="620" y="590" text-anchor="middle" fill="#00d4ff" font-size="9">LCD 16x2 I2C</text>
  <text x="695" y="500" fill="#9c27b0" font-size="8">I2C</text>

  <!-- ========================================== -->
  <!-- POWER SUPPLY -->
  <!-- ========================================== -->
  <g filter="url(#shadow)">
    <rect x="900" y="100" width="150" height="100" rx="8" fill="url(#boardGrad)" stroke="#00d4ff" stroke-width="2"/>
    <text x="975" y="130" text-anchor="middle" fill="#00d4ff" font-size="14" font-weight="bold">Power Supply</text>
    <text x="975" y="150" text-anchor="middle" fill="#f44336" font-size="11">5V DC Adapter</text>
    <text x="975" y="170" text-anchor="middle" fill="#ffeb3b" font-size="11">12V (للـ Servo)</text>
  </g>

  <!-- Power Lines -->
  <line x1="975" y1="200" x2="975" y2="260" stroke="#f44336" stroke-width="3"/>
  <text x="990" y="230" fill="#f44336" font-size="10">5V</text>

  <line x1="1020" y1="200" x2="1020" y2="260" stroke="#ff9800" stroke-width="3"/>
  <text x="1035" y="230" fill="#ff9800" font-size="10">12V</text>

  <line x1="1050" y1="200" x2="1050" y2="260" stroke="#333" stroke-width="3"/>
  <text x="1060" y="230" fill="#00d4ff" font-size="10">GND</text>

  <!-- ========================================== -->
  <!-- FIREBASE CLOUD -->
  <!-- ========================================== -->
  <g filter="url(#shadow)">
    <rect x="900" y="350" width="200" height="150" rx="10" fill="url(#boardGrad)" stroke="#ff9800" stroke-width="2"/>
    <text x="1000" y="380" text-anchor="middle" fill="#ff9800" font-size="14" font-weight="bold">☁️ Firebase Cloud</text>

    <text x="920" y="410" fill="#00d4ff" font-size="10">Database URL:</text>
    <text x="920" y="425" fill="white" font-size="9">my-systim-default-rtdb</text>

    <text x="920" y="450" fill="#4caf50" font-size="10">Status: ● Connected</text>

    <rect x="920" y="465" width="160" height="25" rx="5" fill="#333"/>
    <text x="1000" y="482" text-anchor="middle" fill="#00d4ff" font-size="9">Real-time Sync</text>
  </g>

  <!-- WiFi Signal to ESP -->
  <path d="M540 160 Q 720 100 900 160" stroke="#7c3aed" stroke-width="2" stroke-dasharray="5,5" fill="none"/>
  <text x="720" y="120" text-anchor="middle" fill="#7c3aed" font-size="10">WiFi</text>

  <!-- ESP to Firebase -->
  <path d="M540 180 L 900 380" stroke="#7c3aed" stroke-width="2" fill="none"/>
  <circle cx="720" cy="280" r="4" fill="#7c3aed"/>

  <!-- ========================================== -->
  <!-- LEGEND -->
  <!-- ========================================== -->
  <g transform="translate(900, 530)">
    <rect width="250" height="200" rx="8" fill="url(#boardGrad)" stroke="#00d4ff" stroke-width="1"/>
    <text x="125" y="25" text-anchor="middle" fill="#00d4ff" font-size="12" font-weight="bold">📋 Legend - المفتاح</text>

    <!-- Power Lines -->
    <line x1="20" y1="50" x2="60" y2="50" stroke="#ffeb3b" stroke-width="3"/>
    <text x="70" y="54" fill="#ffeb3b" font-size="9">5V Power</text>

    <line x1="20" y1="75" x2="60" y2="75" stroke="#ff9800" stroke-width="3"/>
    <text x="70" y="79" fill="#ff9800" font-size="9">12V Power</text>

    <line x1="20" y1="100" x2="60" y2="100" stroke="#333" stroke-width="3"/>
    <text x="70" y="104" fill="#888" font-size="9">Ground (GND)</text>

    <!-- Signal Lines -->
    <line x1="20" y1="125" x2="60" y2="125" stroke="#4caf50" stroke-width="2"/>
    <text x="70" y="129" fill="#4caf50" font-size="9">Signal</text>

    <line x1="20" y1="150" x2="60" y2="150" stroke="#2196f3" stroke-width="2"/>
    <text x="70" y="154" fill="#2196f3" font-size="9">Serial (TX/RX)</text>

    <line x1="20" y1="175" x2="60" y2="175" stroke="#7c3aed" stroke-width="2" stroke-dasharray="5,5"/>
    <text x="70" y="179" fill="#7c3aed" font-size="9">WiFi/Cloud</text>
  </g>

  <!-- ========================================== -->
  <!-- PIN CONNECTIONS TABLE -->
  <!-- ========================================== -->
  <g transform="translate(50, 620)">
    <rect width="800" height="150" rx="8" fill="url(#boardGrad)" stroke="#00d4ff" stroke-width="1"/>
    <text x="400" y="25" text-anchor="middle" fill="#00d4ff" font-size="12" font-weight="bold">📌 Pin Connections - توصيلات المنافذ</text>

    <!-- Table Header -->
    <rect x="10" y="35" width="150" height="25" fill="#333"/>
    <text x="85" y="52" text-anchor="middle" fill="white" font-size="9">Component</text>

    <rect x="160" y="35" width="80" height="25" fill="#333"/>
    <text x="200" y="52" text-anchor="middle" fill="white" font-size="9">Pin</text>

    <rect x="240" y="35" width="80" height="25" fill="#333"/>
    <text x="280" y="52" text-anchor="middle" fill="white" font-size="9">Arduino</text>

    <rect x="320" y="35" width="120" height="25" fill="#333"/>
    <text x="380" y="52" text-anchor="middle" fill="white" font-size="9">Type</text>

    <rect x="440" y="35" width="350" height="25" fill="#333"/>
    <text x="615" y="52" text-anchor="middle" fill="white" font-size="9">Description</text>

    <!-- Table Rows -->
    <text x="85" y="75" text-anchor="middle" fill="#ff9800" font-size="8">Servo (Entry)</text>
    <text x="200" y="75" text-anchor="middle" fill="white" font-size="8">D9</text>
    <text x="280" y="75" text-anchor="middle" fill="white" font-size="8">Digital</text>
    <text x="380" y="75" text-anchor="middle" fill="#ff9800" font-size="8">PWM Output</text>
    <text x="615" y="75" text-anchor="middle" fill="white" font-size="8">بوابة الدخول</text>

    <text x="85" y="92" text-anchor="middle" fill="#ff9800" font-size="8">Servo (Exit)</text>
    <text x="200" y="92" text-anchor="middle" fill="white" font-size="8">D10</text>
    <text x="280" y="92" text-anchor="middle" fill="white" font-size="8">Digital</text>
    <text x="380" y="92" text-anchor="middle" fill="#ff9800" font-size="8">PWM Output</text>
    <text x="615" y="92" text-anchor="middle" fill="white" font-size="8">بوابة الخروج</text>

    <text x="85" y="109" text-anchor="middle" fill="#ff9800" font-size="8">Servo (Security)</text>
    <text x="200" y="109" text-anchor="middle" fill="white" font-size="8">D53</text>
    <text x="280" y="109" text-anchor="middle" fill="white" font-size="8">Digital</text>
    <text x="380" y="109" text-anchor="middle" fill="#ff9800" font-size="8">PWM Output</text>
    <text x="615" y="109" text-anchor="middle" fill="white" font-size="8">باب غرفة الأمان</text>

    <text x="85" y="126" text-anchor="middle" fill="#4caf50" font-size="8">IR Entry</text>
    <text x="200" y="126" text-anchor="middle" fill="white" font-size="8">D27</text>
    <text x="280" y="126" text-anchor="middle" fill="white" font-size="8">Digital In</text>
    <text x="380" y="126" text-anchor="middle" fill="#4caf50" font-size="8">Input Pullup</text>
    <text x="615" y="126" text-anchor="middle" fill="white" font-size="8">كشف السيارات</text>
  </g>

  <!-- Footer -->
  <text x="600" y="780" text-anchor="middle" fill="#666" font-size="11">
    نظام الكراج الذكي © 2025 | Smart Garage IoT System v2.0
  </text>
</svg>
